<?xml version="1.0" encoding="UTF-8"?><svg id="Layer_2" xmlns="http://www.w3.org/2000/svg" viewBox="0 0 218.63 26.74"><defs><style>.cls-1{fill:#fff;}.cls-2{fill:#73cdd7;}</style></defs><g id="Layer_1-2"><g><g><g><path class="cls-1" d="M9.89,20.98c1.42-1.42,2.86-2.96,4.43-4.37,.51-.46,1.36-.73,2.06-.75,3.66-.07,7.32-.06,10.99-.01,.59,0,1.33,.18,1.75,.56,1.64,1.51,3.18,3.12,4.76,4.7-8.03-.05-15.97-.09-23.98-.14Z"/><path class="cls-1" d="M43.96,14.21c-1.83,1.83-3.51,3.6-5.31,5.23-.31,.28-1.35,.24-1.68-.05-1.54-1.37-3-2.83-4.37-4.37-.3-.34-.36-1.37-.08-1.68,1.64-1.81,3.41-3.49,5.25-5.33,2.05,2.05,4.02,4.02,6.2,6.2Z"/><path class="cls-1" d="M11.8,14.14c-2.06,2.06-3.99,3.99-6.15,6.15-1.86-1.86-3.71-3.67-5.49-5.55-.22-.23-.2-1.04,.03-1.28,1.75-1.85,3.57-3.63,5.43-5.49,2.14,2.14,4.07,4.07,6.18,6.18Z"/></g><path class="cls-2" d="M16.3,11.11c1.67-1.67,3.54-3.54,5.49-5.49,1.91,1.91,3.78,3.78,5.7,5.7-3.8-.07-7.54-.14-11.19-.2Z"/></g><g><g><path class="cls-1" d="M59.66,0h3.62c1.32,0,2.57,.56,3.76,1.69,1,1.16,1.5,2.35,1.5,3.57v3.51c-.1,.44-.39,.66-.87,.66h-2.94c-.42,0-.7-.17-.84-.5-.05-.08-.07-.21-.07-.39v-3.08c0-.33-.18-.57-.55-.71-.06-.01-.12-.02-.18-.02h-3.23c-.33,0-.57,.18-.71,.55-.01,.06-.02,.12-.02,.18v15.81c0,.33,.19,.57,.57,.71,.05,.01,.1,.02,.16,.02h3.23c.33,0,.57-.19,.71-.57,.01-.05,.02-.1,.02-.16v-3.08c0-.42,.17-.7,.52-.84,.08-.05,.21-.07,.39-.07h2.98c.45,0,.73,.23,.84,.68v3.51c0,1.18-.46,2.32-1.39,3.42-.53,.56-1,.94-1.39,1.14-.81,.48-1.84,.71-3.08,.71h-2.39c-1.41,0-2.56-.31-3.42-.93-1.05-.65-1.79-1.66-2.25-3.03-.15-.46-.23-1.11-.23-1.94V5.86c0-1.47,.34-2.66,1.03-3.57,.33-.5,.83-.98,1.48-1.44,.97-.57,1.9-.86,2.76-.86Z"/><path class="cls-1" d="M78.11,4.71h2.6c.64,0,.96,.32,.96,.96v2.87c0,.43-.17,.71-.5,.84-.08,.05-.22,.07-.41,.07h-3.08c-.33,0-.57,.19-.71,.57-.01,.05-.02,.1-.02,.16v15.65c0,.43-.17,.71-.5,.84-.08,.05-.22,.07-.41,.07h-2.92c-.43,0-.71-.17-.84-.5-.05-.08-.07-.22-.07-.41V10.59c0-1.4,.31-2.54,.93-3.41,.65-1.05,1.67-1.79,3.05-2.25,.46-.15,1.1-.23,1.93-.23Z"/><path class="cls-1" d="M89.79,4.71h2.39c1.47,0,2.66,.34,3.57,1.02,.5,.34,.98,.84,1.44,1.5,.57,.97,.86,1.9,.86,2.76v11.48c0,1.32-.56,2.57-1.69,3.76-.93,.8-1.88,1.27-2.85,1.43-.34,.06-.81,.09-1.39,.09h-2.26c-1.45,0-2.57-.29-3.35-.86-1.08-.65-1.85-1.63-2.32-2.92-.19-.5-.28-1.21-.28-2.12V10.59c0-1.4,.31-2.54,.93-3.42,.65-1.03,1.66-1.78,3.03-2.25,.47-.14,1.12-.21,1.94-.21Zm-1.16,5.47v11.09c0,.33,.19,.57,.57,.71,.05,.01,.1,.02,.16,.02h3.23c.33,0,.57-.19,.71-.57,.01-.05,.02-.1,.02-.16V10.18c0-.34-.18-.58-.55-.71-.06-.02-.12-.04-.18-.04h-3.23c-.33,0-.57,.19-.71,.57-.01,.06-.02,.12-.02,.18Z"/><path class="cls-1" d="M102.04,4.71h3.12c.36,0,.61,.16,.77,.48,.06,.13,1.06,4.33,3.01,12.59h.04c.3-1.3,1.29-5.5,3-12.62,.18-.3,.43-.45,.77-.45h3.19c.43,0,.7,.21,.82,.62,1.87,7.82,2.85,11.98,2.96,12.48h.02c1.94-8.26,2.95-12.5,3.05-12.71,.17-.26,.43-.39,.8-.39h3.05c.43,0,.72,.17,.87,.5,.02,.13,.03,.23,.03,.29v.04c0,.06-1.59,6.77-4.76,20.13-.11,.49-.23,.78-.37,.89-.17,.13-.36,.2-.57,.2h-4.21c-.4,0-.68-.2-.82-.59l-2.46-10.32h-.02c-1.6,6.87-2.44,10.38-2.51,10.52-.17,.26-.43,.39-.8,.39h-4.12c-.42,0-.7-.17-.84-.5-3.28-13.73-4.92-20.64-4.92-20.73,0-.39,.21-.65,.64-.78,.08-.01,.17-.02,.27-.02Z"/><path class="cls-1" d="M131.51,4.71h2.98c.18,0,.34,.04,.48,.12,.38-.08,.89-.12,1.53-.12h2.39c1.4,0,2.54,.3,3.4,.91,1.05,.67,1.79,1.68,2.25,3.05,.15,.48,.23,1.12,.23,1.93v15.19c0,.64-.32,.96-.96,.96h-2.91c-.38,0-.65-.17-.8-.5-.05-.08-.07-.22-.07-.41V10.18c0-.34-.18-.58-.55-.71-.06-.02-.12-.04-.18-.04h-3.23c-.33,0-.57,.19-.71,.57-.01,.06-.02,.12-.02,.18v15.71c0,.45-.23,.73-.68,.84-.05,.01-.11,.02-.18,.02h-3.03c-.38,0-.64-.17-.78-.5-.05-.08-.07-.22-.07-.41V5.6c0-.42,.17-.7,.5-.84,.08-.04,.22-.05,.41-.05Z"/></g><g><path class="cls-2" d="M157.32,0c1.32,0,2.57,.56,3.76,1.69,1,1.16,1.5,2.35,1.5,3.57v6.76c0,.94-.32,1.91-.96,2.92,.64,1,.96,1.97,.96,2.91v3.62c0,1.18-.46,2.32-1.39,3.42-.53,.56-1,.94-1.39,1.14-.81,.48-1.84,.71-3.08,.71h-7.33c-.64,0-.96-.32-.96-.96V.82c0-.42,.21-.69,.62-.82h8.27Zm-4.15,4.72v7.84h3.96c.33,0,.57-.19,.71-.57,.01-.06,.02-.11,.02-.16V5.46c0-.33-.18-.57-.55-.71-.06-.01-.12-.02-.18-.02h-3.96Zm0,12.59v4.69h3.96c.33,0,.57-.19,.71-.57,.01-.05,.02-.1,.02-.16v-3.23c0-.33-.18-.57-.55-.71-.06-.01-.12-.02-.18-.02h-3.96Z"/><path class="cls-2" d="M172.15,4.71h2.39c1.4,0,2.54,.3,3.4,.91,1.05,.67,1.79,1.68,2.25,3.05,.15,.48,.23,1.12,.23,1.93v15.3c0,.45-.22,.73-.66,.84-.06,.01-.12,.02-.2,.02h-7.42c-1.41,0-2.56-.31-3.42-.93-1.05-.65-1.79-1.66-2.25-3.03-.15-.46-.23-1.11-.23-1.94v-2.39c0-1.4,.31-2.54,.93-3.41,.65-1.05,1.66-1.79,3.03-2.25,.48-.15,1.12-.23,1.94-.23h3.53v-2.39c0-.34-.18-.58-.55-.71-.06-.02-.12-.04-.18-.04h-3.23c-.33,0-.57,.19-.71,.57,0,.68-.31,1.02-.93,1.02h-2.91c-.43,0-.71-.17-.86-.52-.04-.08-.06-.18-.07-.3,0-1.56,.62-2.93,1.87-4.12,.81-.68,1.65-1.09,2.51-1.25,.34-.08,.85-.12,1.52-.12Zm-1.16,13.33v3.23c0,.33,.19,.57,.57,.71,.05,.01,.1,.02,.16,.02h3.96v-4.69h-3.96c-.33,0-.57,.18-.71,.55-.01,.06-.02,.12-.02,.18Z"/><path class="cls-2" d="M184.99,4.71h2.98c.18,0,.34,.04,.48,.12,.38-.08,.89-.12,1.53-.12h2.39c1.4,0,2.54,.3,3.4,.91,1.05,.67,1.79,1.68,2.25,3.05,.15,.48,.23,1.12,.23,1.93v15.19c0,.64-.32,.96-.96,.96h-2.91c-.38,0-.65-.17-.8-.5-.05-.08-.07-.22-.07-.41V10.18c0-.34-.18-.58-.55-.71-.06-.02-.12-.04-.18-.04h-3.23c-.33,0-.57,.19-.71,.57-.01,.06-.02,.12-.02,.18v15.71c0,.45-.23,.73-.68,.84-.05,.01-.11,.02-.18,.02h-3.03c-.38,0-.64-.17-.78-.5-.05-.08-.07-.22-.07-.41V5.6c0-.42,.17-.7,.5-.84,.08-.04,.22-.05,.41-.05Z"/><path class="cls-2" d="M202.58,0h3.39c.45,.1,.68,.39,.68,.87V9.66c.88,1.18,1.33,1.79,1.35,1.85,.12-.11,1.43-1.75,3.92-4.94,.86-1.07,1.34-1.65,1.46-1.75,.11-.08,.24-.12,.39-.12h4.15c.3,0,.52,.19,.66,.57,.02,.06,.03,.12,.03,.18v.04c0,.25-.22,.61-.66,1.07-.06,.08-2.39,3.04-7.01,8.86v.02l7.58,10.14c.06,.11,.09,.22,.09,.34v.04c0,.36-.21,.61-.62,.77-.14,.01-.25,.02-.32,.02h-3.92c-.4,0-.74-.25-1-.75-.06-.07-2.09-2.84-6.1-8.31v-.02h-.02v8.16c0,.5-.23,.8-.68,.89-.05,.01-.11,.02-.18,.02h-3.03c-.38,0-.64-.17-.78-.5-.05-.08-.07-.22-.07-.41V.87c0-.49,.23-.78,.68-.87Z"/></g></g></g></g></svg>